<?xml version="1.0" encoding="iso-8859-1"?>
<!-- Generator: Adobe Illustrator 18.1.1, SVG Export Plug-In . SVG Version: 6.00 Build 0)  -->
<svg version="1.1" id="Capa_1" xmlns="http://www.w3.org/2000/svg" xmlns:xlink="http://www.w3.org/1999/xlink" x="0px" y="0px"
	 viewBox="0 0 14.363 14.363" style="enable-background:new 0 0 14.363 14.363;" xml:space="preserve">
<g>
	<g>
		<path d="M256 0c-141.385 0-256 35.817-256 80v64c0 44.183 114.615 80 256 80s256-35.817 256-80v-64c0-44.183-114.615-80-256-80z"/>
	<path d="M256 272c-141.385 0-256-35.817-256-80v96c0 44.183 114.615 80 256 80s256-35.817 256-80v-96c0 44.183-114.615 80-256 80z"/>
	<path d="M256 416c-141.385 0-256-35.817-256-80v96c0 44.183 114.615 80 256 80s256-35.817 256-80v-96c0 44.183-114.615 80-256 80z"/>
	</g>
</g>
<g>
</g>
<g>
</g>
<g>
</g>
<g>
</g>
<g>
</g>
<g>
</g>
<g>
</g>
<g>
</g>
<g>
</g>
<g>
</g>
<g>
</g>
<g>
</g>
<g>
</g>
<g>
</g>
<g>
</g>
</svg>
